<svg width="500" height="500" version="1.1" viewBox="0 0 500 500" xml:space="preserve" xmlns="http://www.w3.org/2000/svg"><g transform="translate(197 890.21)"><path d="m45.772-773.89c10.313-1.0901 20.794 5.4206 29.905 9.3056 7.0805 3.0188 14.549 4.4326 21.749 7.047 4.8896 1.7754 9.4847 5.1672 10.562 10.559 1.8427 9.2206-6.1924 13.93-12.375 18.856-13.002 10.36-25.092 23.517-42.593 25.392-19.359 2.0738-29.644-9.5778-42.596-21.438-6.1533-5.6347-15.08-12.292-13.097-21.903 1.4558-7.055 7.198-9.9521 13.1-12.911 11.128-5.5782 22.673-13.567 35.343-14.907" fill="#e9b749"/><path d="m225.2-547.61c11.164-39.713-2.0155-80.363-25.121-113.28-12.985-18.497-29.591-34.252-41.554-53.467-28.309-45.472 2.514-108.53-37.554-148.61-32.274-32.284-97.174-29.57-123.46 9.049-26.357 38.718-4.0299 85.625-17.898 126.87-6.5454 19.467-19.554 33.995-32.021 49.842-13.401 17.034-25.699 34.594-34.756 54.373-6.0218 13.152-10.51 27.383-12.718 41.686-1.3084 8.4749 0.89723 18.742-1.3978 26.802-1.412 4.9587-6.0419 10.682-9.0091 14.884-9.0567 12.827-26.265 8.9502-35.702 20.856-6.7984 8.5773-3.3321 20.888-3.0893 30.798 0.48116 19.637-14.283 45.685 7.2631 59.587 15.394 9.933 33.691 9.4647 50.749 13.958 22.993 6.0571 43.008 21.619 67.967 15.715 7.1509-1.6916 13.891-5.0036 18.936-10.433 4.4434-4.7824 5.6549-10.924 12.782-12.388 26.308-5.4037 55.718-2.108 82.466-2.0978 5.2447 2e-3 11.748-0.0608 16.119 3.3557 5.7404 4.4867 7.7185 12.556 13.822 17.225 12.936 9.8952 31.617 9.2586 46.182 3.4795 17.612-6.9883 29.724-21.357 44.405-32.67 10.118-7.7963 21.992-11.841 32.624-18.659 7.9253-5.0827 15.334-12.532 15.334-22.574 0-16.16-17.556-23.458-23.057-37.155-4.316-10.747 0.72569-31.236-11.308-37.155m-179.43-226.28c10.313-1.0901 20.794 5.4206 29.905 9.3056 7.0805 3.0188 14.549 4.4326 21.749 7.047 4.8896 1.7754 9.4847 5.1672 10.562 10.559 1.8427 9.2206-6.1924 13.93-12.375 18.856-13.002 10.36-25.092 23.517-42.593 25.392-19.359 2.0738-29.644-9.5778-42.596-21.438-6.1533-5.6347-15.08-12.292-13.097-21.903 1.4558-7.055 7.198-9.9521 13.1-12.911 11.128-5.5782 22.673-13.567 35.343-14.907m-9.2602 13.392c-1.8566 1.497 0.37155 4.4665 2.3705 3.2585 2.2702-1.372-0.31694-4.9143-2.3705-3.2585m17.056 0.0811c-1.9965 1.2088-0.25388 4.5294 1.8845 3.3144 2.199-1.2495 0.21225-4.5839-1.8845-3.3144m-49.482 17.969c-0.788 8.3996 11.625 15.049 18.124 18.345 19.693 9.987 40.681 6.4779 58.905-4.9597 6.0636-3.8058 16.342-9.7412 15.406-17.917-16.531 7.8202-32.004 22.108-51.655 20.762-15.017-1.0285-27.576-10.066-40.78-16.231m-89.716 188.83c15.396-2.0807 24.023 15.154 30.29 25.946 15.009 25.846 36.914 52.031 46.063 80.654 5.4189 16.953 1.1848 34.115-18.355 37.378-18.688 3.1207-35.093-6.367-51.655-13.428-10.184-4.3421-20.904-6.739-31.718-8.9056-9.2736-1.8581-24.556-4.1292-29.653-13.268-4.7847-8.5777-0.60547-19.263 1.1531-28.057 1.6112-8.0572 1.1236-15.464 0.25662-23.562-0.61731-5.766-2.1665-12.867 1.8306-17.826 6.4112-7.9542 20.425-6.0354 28.225-13.081 7.513-6.7857 12.842-24.402 23.562-25.851m234.71 0.57198c0 5.9123-0.67585 12.296 0.42374 18.124 4.6369 24.577 34.47 20.209 48.509 7.1652 5.7942-5.3831 10.358-14.728 19.901-12.961 5.3312 0.98698 5.314 8.8304 5.4674 13.046 0.40371 11.095 2.7762 21.878 9.6881 30.812 5.1743 6.6875 15.618 13.304 15.618 22.656 0 14.005-21.834 19.633-31.64 25.239-22.434 12.827-38.844 40.574-67.061 40.912-8.5944 0.10282-18.129-0.0119-24.111-7.2855-7.1777-8.7265-5.4961-23.26-3.4375-33.491 5.3453-26.566 7.4382-52.134 10.589-78.842 1.3786-11.684 1.5428-24.099 16.053-25.374" fill="#0d1717"/><path d="m104.68-726.14c3.8175 25.849 20.755 49.232 31.438 72.498 11.771 25.636 17.498 52.476 17.498 80.654 7.9963-5.6266 15.358-4.016 24.468-3.6249 0.16007-19.336 1.1237-35.101-6.731-53.467-5.6674-13.252-18.112-26.037-21.362-39.874 25.714 18.264 44.234 64.098 32.624 94.247 13.138 3.1206 22.854 11.743 27.187 24.468-4.3382-2.5489-6.9962-7.3313-10.875-10.58-10.754-9.0052-47.593-24.174-49.842 0.61113-37.815 4.8873-19.755 49.556-31.718 73.404-5.8303 11.623-20.124 20.848-31.718 25.896-30.707 13.369-76.273 14.735-97.872-15.927 23.034-13.427-4.3062-40.864-16.312-51.395-12.346-10.829-27.938-20.375-35.36-35.602-11.984-24.588-0.16566-54.634 12.888-76.123 4.3925-7.2312 9.5123-15.492 16.128-20.843-13.44 31.959-46.919 72.494-16.312 106.03 0-27.596 5.3657-52.955 17.453-77.935 13.144-27.165 34.464-57.611 35.108-88.81 9.6428 4.4968 15.032 15.362 24.468 20.559 18.107 9.973 38.209 6.513 54.373-5.4961 7.9893-5.9354 15.07-15.053 24.468-18.688" fill="#fff"/><g fill="#e9b749"><path d="m-85.63-553.62c15.396-2.0807 24.023 15.154 30.29 25.946 15.009 25.846 36.914 52.031 46.063 80.654 5.4189 16.953 1.1848 34.115-18.355 37.378-18.688 3.1207-35.093-6.367-51.655-13.428-10.184-4.3421-20.904-6.739-31.718-8.9056-9.2736-1.8581-24.556-4.1292-29.653-13.268-4.7847-8.5777-0.60547-19.263 1.1531-28.057 1.6112-8.0572 1.1236-15.464 0.25662-23.562-0.61731-5.766-2.1665-12.867 1.8306-17.826 6.4112-7.9542 20.425-6.0354 28.225-13.081 7.513-6.7857 12.842-24.402 23.562-25.851"/><path d="m149.08-553.05c0 5.9123-0.67585 12.296 0.42374 18.124 4.6369 24.577 34.47 20.209 48.509 7.1652 5.7942-5.3831 10.358-14.728 19.901-12.961 5.3312 0.98698 5.314 8.8304 5.4674 13.046 0.40371 11.095 2.7762 21.878 9.6881 30.812 5.1743 6.6875 15.618 13.304 15.618 22.656 0 14.005-21.834 19.633-31.64 25.239-22.434 12.827-38.844 40.574-67.061 40.912-8.5944 0.10282-18.129-0.0119-24.111-7.2855-7.1777-8.7265-5.4961-23.26-3.4375-33.491 5.3453-26.566 7.4382-52.134 10.589-78.842 1.3786-11.684 1.5428-24.099 16.053-25.374"/><path d="m-128.78-794.96c-8.8362 21.042-11.498 43.671-6.1868 66.018 1.4786 6.221 2.8251 14.636 7.3004 19.527 3.7299 4.0764 10.342 4.1906 13.096-0.96836 4.0498-7.5856-3.9766-22.225-4.9605-30.439-2.386-19.917 0.69818-43.263 12.926-59.867 6.847-9.2976 14.779-17.154 24.611-23.286 4.388-2.7365 10.717-5.4391 10.182-11.706-1.0996-12.872-15.754-4.9606-21.389-1.347-15.482 9.9283-28.425 25.03-35.58 42.068m38.114 15.942c-6.3683 15.168-7.8381 32.232-3.8222 48.24 1.6828 6.7077 12.452 22.356 18.388 9.0841 2.7221-6.0856-2.4948-15.596-3.1905-21.984-1.3323-12.233 1.0868-26.032 7.9046-36.465 4.9237-7.5345 25.206-17.91 23.884-26.734-1.3527-9.028-11.367-7.5944-16.844-3.9104-11.345 7.6312-21.014 19.133-26.32 31.77m38.202 13.658c-3.3516 7.9809-5.3157 17.383-2.1422 25.767 2.4774 6.5453 11.705 10.228 15.29 2.1866 2.3227-5.2109-1.3467-11.946 0.30161-17.783 1.8644-6.6012 11.824-13.035 11.163-19.566-0.55068-5.4384-6.9396-7.871-11.502-5.7918-5.7298 2.6114-10.741 9.545-13.11 15.187" stroke="#000" stroke-width="16" style="paint-order:stroke markers fill"/></g><path d="m101.96-763.29-10.875-2.7187c2.1682-4.9654 5.1266-8.855 5.401-14.5 0.49017-10.082-7.9128-27.316-18.641-14.46-5.5466 6.6473-4.9868 14.639-3.9787 22.616-3.2792-1.3454-8.606-2.6383-10.587-5.794-2.4101-3.8401-1.325-10.821-0.6594-15.049 2.931-18.621 24.197-36.259 39.628-17.182 2.6108 3.2278 4.2158 6.8904 5.4002 10.838 1.5831 5.2767 1.9542 10.828 1.4055 16.312-0.71623 7.1584-3.504 13.783-7.0953 19.937" fill="#fff"/><path d="m24.929-774.17c-5e-3 -6.2239-1.3664-23.559-10.878-22.916-15.187 1.026-7.7312 24.176-3.6214 31.072l-9.0622 4.5311c-5.9326-12.686-8.6004-27.442-3.0543-40.78 3.6608-8.8043 12.665-15.413 22.085-10.474 11.953 6.2674 20.62 33.058 4.5311 38.567" fill="#fff"/><path d="m4.5723-671.25c-8.5879 3.3869-5.9173 16.571-5.9173 23.862v60.005c0 6.1835-2.2795 18.21 1.7139 23.334 4.4337 5.6899 17.51 3.2251 23.862 3.2251h54.103c6.9288 0 17.091 1.8646 23.59-0.7302 7.7989-3.114 4.9374-17.157 4.9374-23.862v-60.005c0-6.0356 2.5106-17.403-0.84781-22.518-4.3119-6.5665-17-4.0417-23.744-4.0417h-54.103c-6.9539 0-17.062-1.8458-23.593 0.7302m88.517 14.025v82.63h-7.8695c-0.0951-34.453-63.649-34.673-63.94 0h-8.8532v-82.63h80.662m-43.282 13.249c-24.404 4.494-17.419 40.858 6.8858 36.596 23.645-4.1462 16.328-40.871-6.8858-36.596m-48.069 102.85c-5.3327 3.0741-3.8811 10.952 1.8543 12.448 16.148 4.2106 38.346 0.31269 55.068 0.31269 4.9787 0 14.203 1.7422 18.263-1.7139 4.5016-3.8315 1.8034-10.831-3.5234-11.833-16.218-3.0512-35.602-0.22467-52.12-0.22467-5.4192 0-14.723-1.7674-19.542 1.011" fill="#0d1717" stroke="#000" stroke-width=".98369" style="paint-order:stroke markers fill"/></g></svg>
